<svg width="32" height="32" viewBox="0 0 32 32" fill="none" xmlns="http://www.w3.org/2000/svg">
<path fill-rule="evenodd" clip-rule="evenodd" d="M15.9998 2.66666C23.3636 2.66666 29.3332 8.6362 29.3332 16C29.3332 23.3638 23.3636 29.3333 15.9998 29.3333C8.63604 29.3333 2.6665 23.3638 2.6665 16C2.6665 8.6362 8.63604 2.66666 15.9998 2.66666ZM15.9998 5.33333C10.1088 5.33333 5.33317 10.109 5.33317 16C5.33317 21.891 10.1088 26.6667 15.9998 26.6667C21.8909 26.6667 26.6665 21.891 26.6665 16C26.6665 10.109 21.8909 5.33333 15.9998 5.33333ZM15.9998 8C16.7362 8 17.3332 8.59695 17.3332 9.33333V14.6667H22.6665C23.4029 14.6667 23.9998 15.2636 23.9998 16C23.9998 16.7364 23.4029 17.3333 22.6665 17.3333H17.3332V22.6667C17.3332 23.403 16.7362 24 15.9998 24C15.2635 24 14.6665 23.403 14.6665 22.6667V17.3333H9.33317C8.59679 17.3333 7.99984 16.7364 7.99984 16C7.99984 15.2636 8.59679 14.6667 9.33317 14.6667H14.6665V9.33333C14.6665 8.59695 15.2635 8 15.9998 8Z"/>
</svg>