<svg width="50" height="50" viewBox="0 0 62 62" fill="none" xmlns="http://www.w3.org/2000/svg">
<rect width="62" height="62" rx="31" fill="#CEDAE9"/>
<rect x="4" y="4" width="54" height="54" rx="27" fill="#D5D5F4" stroke="white" stroke-width="2"/>
<path fill-rule="evenodd" clip-rule="evenodd" d="M29.6667 17.6666H32.3334C34.4637 17.6666 36.205 19.3319 36.3266 21.4316L36.3334 21.6666V23H40.3334C42.5426 23 44.3334 24.7908 44.3334 27V40.3333C44.3334 42.5424 42.5426 44.3333 40.3334 44.3333H21.6667C19.4576 44.3333 17.6667 42.5424 17.6667 40.3333V27C17.6667 24.7908 19.4576 23 21.6667 23H25.6667V21.6666C25.6667 19.5364 27.332 17.7951 29.4317 17.6734L29.6667 17.6666H32.3334H29.6667ZM41.6667 36.3333H20.3334V40.3333C20.3334 41.0697 20.9304 41.6666 21.6667 41.6666H40.3334C41.0698 41.6666 41.6667 41.0697 41.6667 40.3333V36.3333ZM40.3334 25.6666H21.6667C20.9304 25.6666 20.3334 26.2636 20.3334 27V33.6666H41.6667V27C41.6667 26.2636 41.0698 25.6666 40.3334 25.6666ZM32.3334 20.3333H29.6667C28.983 20.3333 28.4194 20.848 28.3424 21.5111L28.3334 21.6666V23H33.6667V21.6666C33.6667 20.9828 33.152 20.4193 32.4889 20.3423L32.3334 20.3333Z" fill="#F64C72"/>
</svg>
